<svg xmlns="http://www.w3.org/2000/svg" width="350" height="60" viewBox="0 0 92.6 15.88">
    <path d="M13.14 9.2q0-2.87-1.86-4.78-1.86-1.9-4.7-1.9-2.86 0-4.72 1.9Q0 6.32 0 9.2q0 2.86 1.86 4.77 1.86 1.9 4.71 1.9 2.85 0 4.71-1.9 1.86-1.9 1.86-4.77zm-2.1 0q0 2.06-1.27 3.39-1.25 1.3-3.2 1.3-1.93 0-3.2-1.32-1.26-1.31-1.26-3.37 0-2.07 1.26-3.38Q4.64 4.5 6.57 4.5q1.95 0 3.2 1.31 1.26 1.35 1.26 3.4z"/>
    <path d="M29.06 15.7v-1.9h-1.5V4.61h1.5V2.7h-4l-3.73 9.04-3.76-9.04h-3.99v1.9h1.55V15.7h3.37v-1.9h-1.42V6.6l3.69 9.1h.95l3.74-9.07v9.07z"/>
    <path d="M44 4.62V2.7h-3.5v9.21q-1.21-1.88-2.42-3.67l-1.74-2.62q-.88-1.35-1.87-2.92h-3.69v1.9h1.6V15.7h3.64v-1.9h-1.69V6.21l6.33 9.64h1.79V4.62z"/>
    <path d="M47.94 2.24V0h-2.1v2.24zm1.53 13.46v-1.9h-1.5V2.7h-2.12v11.08h-1.5v1.91z"/>
    <path d="M59.75 5.75V3.13h-9.77v4.02h1.09V4.2h3.16V14.2H52.6v1.07h2.9V4.2h3.16v1.55z"/>
    <path d="M69.84 15.28v-1.07h-7.05V9.6h4.96V8.53h-4.96V4.2h5.96v2.1h1.07V3.12H60V4.2h1.53v11.08z"/>
    <path d="M81.66 11.22l-1.06-.63q-.4 1.1-.87 1.8-.48.7-1.06 1.1-1.14.83-2.76.83-2.09 0-3.48-1.43-1.37-1.44-1.37-3.7 0-2.21 1.34-3.68 1.33-1.44 3.44-1.44 1.5 0 2.74.8.62.41.99.99.38.56.52 1.34h1.1V4.18h-1.1v.65q-.79-.91-1.84-1.37-1.2-.52-2.37-.52-2.7 0-4.4 1.75-1.68 1.76-1.68 4.5 0 2.8 1.68 4.53 1.7 1.74 4.42 1.74 1.93 0 3.39-.97.75-.5 1.33-1.29.58-.8 1.04-1.98z"/>
    <path d="M92.6 4.2V3.13h-4.25V4.2h1.55V8.4h-6.24V3.13h-2.72V4.2h1.46V14.2h-1.45v1.07h2.71V9.45h6.24v4.76h-1.53v1.07h2.8V4.2z"/>
</svg>